<svg width="30" height="20" viewBox="0 0 30 30" fill="none" xmlns="http://www.w3.org/2000/svg">
    <path d="M16.5 8.5a2.5 2.5 0 1 1 5 0 2.5 2.5 0 0 1-5 0zM2 8.5a2.5 2.5 0 1 1 5 0 2.5 2.5 0 0 1-5 0" fill="#fff"></path>
    <path fill-rule="evenodd" clip-rule="evenodd" d="M0 6.32c0-.245.04-.485.13-.715L.835 3.77l.77-3.035c.05-.215.24-.37.465-.375L11.175 0c2.235 0 4.43.805 6.18 2.27.909.755 1.94 1.155 2.979 1.155h.195c1.915 0 3.47 1.645 3.47 3.675v.895C24 8.545 23.564 9 23.03 9h-.57c.024-.164.04-.33.04-.5C22.5 6.57 20.93 5 19 5 17.07 5 15.5 6.57 15.5 8.5c0 .17.016.336.04.5H7.96c.024-.164.04-.33.04-.5C8 6.57 6.43 5 4.5 5S1 6.57 1 8.5c0 .166.016.33.04.49A1.15 1.15 0 0 1 0 7.83V6.32zM3.5 1.5c-.277 0-.5 1.723-.5 2a.5.5 0 0 0 .5.5H8V1.5H3.5zm5.5 0V4h5.5a.5.5 0 0 0 .5-.5c0-.277-1.224-2-1.5-2H9z" fill="#fff"></path>
    <path fill="#fff" d="M10 10h2v8h-2z"></path>
</svg>